<?xml version="1.0" standalone="no"?>
<!DOCTYPE svg PUBLIC "-//W3C//DTD SVG 20010904//EN"
 "http://www.w3.org/TR/2001/REC-SVG-20010904/DTD/svg10.dtd">
<svg version="1.0" xmlns="http://www.w3.org/2000/svg"
 width="32.000000pt" height="32.000000pt" viewBox="0 0 32.000000 32.000000"
 preserveAspectRatio="xMidYMid meet">

<g transform="translate(0.000000,32.000000) scale(0.100000,-0.100000)"
fill="#000000" stroke="none">
<path d="M50 175 l0 -105 80 0 80 0 0 105 0 105 -80 0 -80 0 0 -105z m140 0
l0 -85 -60 0 -60 0 0 85 0 85 60 0 60 0 0 -85z"/>
<path d="M115 201 c-3 -5 -1 -12 5 -16 5 -3 10 -17 10 -31 0 -13 5 -24 10 -24
6 0 10 18 10 40 0 28 -4 40 -14 40 -8 0 -17 -4 -21 -9z"/>
<path d="M220 249 c0 -6 9 -13 21 -16 23 -6 22 -25 -7 -122 -12 -41 -19 -51
-37 -52 -18 -1 -17 -2 7 -10 17 -4 31 -7 32 -6 0 1 11 40 23 86 13 46 25 90
28 96 2 7 -9 17 -28 24 -39 14 -39 14 -39 0z"/>
</g>
</svg>
